HIERARCHY
ROOT Root
{
  OFFSET 0.0 0.0 0.0
  CHANNELS 6 Xposition Yposition Zposition Zrotation Yrotation Xrotation
  JOINT Hips
  {
    OFFSET 0.0 100.0 0.0
    CHANNELS 6 Xposition Yposition Zposition Zrotation Yrotation Xrotation
    JOINT Spine1
    {
      OFFSET -0.013727 5.003763 -0.053727
      CHANNELS 3 Zrotation Yrotation Xrotation
      JOINT Spine2
      {
        OFFSET -0.0 7.125301 -0.029825
        CHANNELS 3 Zrotation Yrotation Xrotation
        JOINT Chest
        {
          OFFSET -1e-06 7.550063 -0.815971
          CHANNELS 3 Zrotation Yrotation Xrotation
          JOINT Neck1
          {
            OFFSET -0.181677 26.311295 -0.553348
            CHANNELS 3 Zrotation Yrotation Xrotation
            JOINT Neck2
            {
              OFFSET -3e-06 7.709397 2.302585
              CHANNELS 3 Zrotation Yrotation Xrotation
              JOINT Head
              {
                OFFSET -5e-06 6.128916 1.953709
                CHANNELS 3 Zrotation Yrotation Xrotation
                JOINT HeadEnd
                {
                  OFFSET 0.003598 16.065403 -1.835379
                  CHANNELS 3 Zrotation Yrotation Xrotation
                }
                JOINT Jaw
                {
                  OFFSET 0.002637 0.475592 3.094941
                  CHANNELS 3 Zrotation Yrotation Xrotation
                }
                JOINT LeftEye
                {
                  OFFSET 3.206381 5.380205 7.586883
                  CHANNELS 3 Zrotation Yrotation Xrotation
                }
                JOINT RightEye
                {
                  OFFSET -3.22244 5.361869 7.558234
                  CHANNELS 3 Zrotation Yrotation Xrotation
                }
              }
            }
          }
          JOINT LeftShoulder
          {
            OFFSET 1.621652 23.237164 5.113413
            CHANNELS 3 Zrotation Yrotation Xrotation
            JOINT LeftArm
            {
              OFFSET 14.919846 2e-06 -5.502326
              CHANNELS 3 Zrotation Yrotation Xrotation
              JOINT LeftForeArm
              {
                OFFSET 28.739307 0.0 -0.002588
                CHANNELS 3 Zrotation Yrotation Xrotation
                JOINT LeftHand
                {
                  OFFSET 27.093981 -1e-06 0.002609
                  CHANNELS 3 Zrotation Yrotation Xrotation
                  JOINT LeftHandThumb1
                  {
                    OFFSET 2.276482 -1.392045 3.191413
                    CHANNELS 3 Zrotation Yrotation Xrotation
                    JOINT LeftHandThumb2
                    {
                      OFFSET 4.012836 -1.828127 1.641654
                      CHANNELS 3 Zrotation Yrotation Xrotation
                      JOINT LeftHandThumb3
                      {
                        OFFSET 2.798515 0.0 -3e-06
                        CHANNELS 3 Zrotation Yrotation Xrotation
                        JOINT LeftHandThumbEnd
                        {
                          OFFSET 3.180793 -4e-06 4e-06
                          CHANNELS 3 Zrotation Yrotation Xrotation
                        }
                      }
                    }
                  }
                  JOINT LeftHandIndex1
                  {
                    OFFSET 3.247555 -0.531998 2.296169
                    CHANNELS 3 Zrotation Yrotation Xrotation
                    JOINT LeftHandIndex2
                    {
                      OFFSET 6.364578 0.01206 0.1786
                      CHANNELS 3 Zrotation Yrotation Xrotation
                      JOINT LeftHandIndex3
                      {
                        OFFSET 3.662364 0.0 0.0
                        CHANNELS 3 Zrotation Yrotation Xrotation
                        JOINT LeftHandIndex4
                        {
                          OFFSET 2.329242 4e-06 4e-06
                          CHANNELS 3 Zrotation Yrotation Xrotation
                          JOINT LeftHandIndexEnd
                          {
                            OFFSET 2.759615 -0.180537 -0.113024
                            CHANNELS 3 Zrotation Yrotation Xrotation
                          }
                        }
                      }
                    }
                  }
                  JOINT LeftHandMiddle1
                  {
                    OFFSET 3.163495 0.240981 1.000332
                    CHANNELS 3 Zrotation Yrotation Xrotation
                    JOINT LeftHandMiddle2
                    {
                      OFFSET 6.19078 -0.259278 -1.002548
                      CHANNELS 3 Zrotation Yrotation Xrotation
                      JOINT LeftHandMiddle3
                      {
                        OFFSET 4.35652 -4e-06 -1e-06
                        CHANNELS 3 Zrotation Yrotation Xrotation
                        JOINT LeftHandMiddle4
                        {
                          OFFSET 2.996877 -8e-06 0.0
                          CHANNELS 3 Zrotation Yrotation Xrotation
                          JOINT LeftHandMiddleEnd
                          {
                            OFFSET 2.304287 -0.294569 -0.031741
                            CHANNELS 3 Zrotation Yrotation Xrotation
                          }
                        }
                      }
                    }
                  }
                  JOINT LeftHandRing1
                  {
                    OFFSET 2.882643 -0.053652 -0.322543
                    CHANNELS 3 Zrotation Yrotation Xrotation
                    JOINT LeftHandRing2
                    {
                      OFFSET 5.854541 -0.486202 -1.373841
                      CHANNELS 3 Zrotation Yrotation Xrotation
                      JOINT LeftHandRing3
                      {
                        OFFSET 4.350578 0.0 3e-06
                        CHANNELS 3 Zrotation Yrotation Xrotation
                        JOINT LeftHandRing4
                        {
                          OFFSET 2.651321 7e-06 2e-06
                          CHANNELS 3 Zrotation Yrotation Xrotation
                          JOINT LeftHandRingEnd
                          {
                            OFFSET 1.936105 0.077687 -7.1e-05
                            CHANNELS 3 Zrotation Yrotation Xrotation
                          }
                        }
                      }
                    }
                  }
                  JOINT LeftHandPinky1
                  {
                    OFFSET 2.8655 -0.310005 -1.600378
                    CHANNELS 3 Zrotation Yrotation Xrotation
                    JOINT LeftHandPinky2
                    {
                      OFFSET 5.087849 -1.331141 -1.77123
                      CHANNELS 3 Zrotation Yrotation Xrotation
                      JOINT LeftHandPinky3
                      {
                        OFFSET 3.070974 4e-06 0.0
                        CHANNELS 3 Zrotation Yrotation Xrotation
                        JOINT LeftHandPinky4
                        {
                          OFFSET 1.549672 0.0 1e-06
                          CHANNELS 3 Zrotation Yrotation Xrotation
                          JOINT LeftHandPinkyEnd
                          {
                            OFFSET 1.944893 -0.157802 0.057219
                            CHANNELS 3 Zrotation Yrotation Xrotation
                          }
                        }
                      }
                    }
                  }
                }
              }
            }
          }
          JOINT RightShoulder
          {
            OFFSET -1.380118 23.180309 5.214158
            CHANNELS 3 Zrotation Yrotation Xrotation
            JOINT RightArm
            {
              OFFSET -15.037196 1.2e-05 -5.545604
              CHANNELS 3 Zrotation Yrotation Xrotation
              JOINT RightForeArm
              {
                OFFSET -28.736639 2e-06 -0.002597
                CHANNELS 3 Zrotation Yrotation Xrotation
                JOINT RightHand
                {
                  OFFSET -27.133619 -0.0 0.002613
                  CHANNELS 3 Zrotation Yrotation Xrotation
                  JOINT RightHandThumb1
                  {
                    OFFSET -2.274032 -1.383988 3.163127
                    CHANNELS 3 Zrotation Yrotation Xrotation
                    JOINT RightHandThumb2
                    {
                      OFFSET -4.011429 -1.827466 1.640914
                      CHANNELS 3 Zrotation Yrotation Xrotation
                      JOINT RightHandThumb3
                      {
                        OFFSET -2.794935 -4e-06 -3e-06
                        CHANNELS 3 Zrotation Yrotation Xrotation
                        JOINT RightHandThumbEnd
                        {
                          OFFSET -3.183852 4e-06 1e-06
                          CHANNELS 3 Zrotation Yrotation Xrotation
                        }
                      }
                    }
                  }
                  JOINT RightHandIndex1
                  {
                    OFFSET -3.253266 -0.520057 2.282866
                    CHANNELS 3 Zrotation Yrotation Xrotation
                    JOINT RightHandIndex2
                    {
                      OFFSET -6.341917 0.012471 0.178266
                      CHANNELS 3 Zrotation Yrotation Xrotation
                      JOINT RightHandIndex3
                      {
                        OFFSET -3.654871 -8e-06 -0.0
                        CHANNELS 3 Zrotation Yrotation Xrotation
                        JOINT RightHandIndex4
                        {
                          OFFSET -2.327586 0.0 1e-06
                          CHANNELS 3 Zrotation Yrotation Xrotation
                          JOINT RightHandIndexEnd
                          {
                            OFFSET -2.76179 -0.180656 -0.113078
                            CHANNELS 3 Zrotation Yrotation Xrotation
                          }
                        }
                      }
                    }
                  }
                  JOINT RightHandMiddle1
                  {
                    OFFSET -3.168106 0.246593 1.00103
                    CHANNELS 3 Zrotation Yrotation Xrotation
                    JOINT RightHandMiddle2
                    {
                      OFFSET -6.180828 -0.258836 -1.000895
                      CHANNELS 3 Zrotation Yrotation Xrotation
                      JOINT RightHandMiddle3
                      {
                        OFFSET -4.348901 0.0 -0.0
                        CHANNELS 3 Zrotation Yrotation Xrotation
                        JOINT RightHandMiddle4
                        {
                          OFFSET -3.00024 -4e-06 -2e-06
                          CHANNELS 3 Zrotation Yrotation Xrotation
                          JOINT RightHandMiddleEnd
                          {
                            OFFSET -2.30252 -0.29437 -0.031706
                            CHANNELS 3 Zrotation Yrotation Xrotation
                          }
                        }
                      }
                    }
                  }
                  JOINT RightHandRing1
                  {
                    OFFSET -2.88569 -0.067952 -0.308858
                    CHANNELS 3 Zrotation Yrotation Xrotation
                    JOINT RightHandRing2
                    {
                      OFFSET -5.854198 -0.48613 -1.373731
                      CHANNELS 3 Zrotation Yrotation Xrotation
                      JOINT RightHandRing3
                      {
                        OFFSET -4.33881 -4e-06 -0.0
                        CHANNELS 3 Zrotation Yrotation Xrotation
                        JOINT RightHandRing4
                        {
                          OFFSET -2.654903 -4e-06 4e-06
                          CHANNELS 3 Zrotation Yrotation Xrotation
                          JOINT RightHandRingEnd
                          {
                            OFFSET -1.933568 0.077527 -5.2e-05
                            CHANNELS 3 Zrotation Yrotation Xrotation
                          }
                        }
                      }
                    }
                  }
                  JOINT RightHandPinky1
                  {
                    OFFSET -2.866425 -0.342796 -1.584145
                    CHANNELS 3 Zrotation Yrotation Xrotation
                    JOINT RightHandPinky2
                    {
                      OFFSET -5.091371 -1.332055 -1.772385
                      CHANNELS 3 Zrotation Yrotation Xrotation
                      JOINT RightHandPinky3
                      {
                        OFFSET -3.062664 -4e-06 1e-06
                        CHANNELS 3 Zrotation Yrotation Xrotation
                        JOINT RightHandPinky4
                        {
                          OFFSET -1.546529 4e-06 -2e-06
                          CHANNELS 3 Zrotation Yrotation Xrotation
                          JOINT RightHandPinkyEnd
                          {
                            OFFSET -1.945119 -0.157718 0.057211
                            CHANNELS 3 Zrotation Yrotation Xrotation
                          }
                        }
                      }
                    }
                  }
                }
              }
            }
          }
        }
      }
    }
    JOINT LeftLeg
    {
      OFFSET 10.043214 -8.434526 2.595655
      CHANNELS 3 Zrotation Yrotation Xrotation
      JOINT LeftShin
      {
        OFFSET -1e-06 -43.221752 -0.802913
        CHANNELS 3 Zrotation Yrotation Xrotation
        JOINT LeftFoot
        {
          OFFSET 1e-06 -42.155094 -3.481523
          CHANNELS 3 Zrotation Yrotation Xrotation
          JOINT LeftToeBase
          {
            OFFSET 0.0 -5.059472 13.231529
            CHANNELS 3 Zrotation Yrotation Xrotation
            JOINT LeftToeEnd
            {
              OFFSET -0.009607 -1.647619 6.513017
              CHANNELS 3 Zrotation Yrotation Xrotation
            }
          }
        }
      }
    }
    JOINT RightLeg
    {
      OFFSET -10.047278 -8.29526 2.620317
      CHANNELS 3 Zrotation Yrotation Xrotation
      JOINT RightShin
      {
        OFFSET 1e-06 -43.362206 -0.805556
        CHANNELS 3 Zrotation Yrotation Xrotation
        JOINT RightFoot
        {
          OFFSET 2e-06 -42.117393 -3.478398
          CHANNELS 3 Zrotation Yrotation Xrotation
          JOINT RightToeBase
          {
            OFFSET -0.0 -5.079609 13.284196
            CHANNELS 3 Zrotation Yrotation Xrotation
            JOINT RightToeEnd
            {
              OFFSET 0.009532 -1.634378 6.460591
              CHANNELS 3 Zrotation Yrotation Xrotation
            }
          }
        }
      }
    }
  }
}
MOTION
Frames: 5
Frame Time: 0.03333333333333333
0.0 0.0 0.0 0.0 -0.0 0.0 -3.698956 48.310211 118.259621 -1.915922 3.074586 55.218281 3.014852 -1.25679 12.571862 0.841963 -3.05259 0.374708 5.561312 -5.036879 14.114281 -0.616729 2.499353 3.667371 -1.087173 1.322912 -3.582593 -2.861568 0.783224 2.291398 7.7e-05 -2.2e-05 6e-06 0.043835 -0.003258 -0.300646 0.921834 -3.860224 -11.301361 -0.841132 3.871158 -11.334597 20.573298 -21.416023 1.466633 -4.518779 -48.142708 -43.906616 -0.704241 -9.546728 0.076379 58.655746 4.205421 -0.797269 -5.882102 9.861276 0.702591 -10.936865 -0.360576 7.1562 1e-06 8.774821 -2e-06 -16.798861 18.383858 6.373306 -1.84403 2.498503 -2.507275 -10.163594 4.678943 4.621105 -20.976011 -4e-06 4e-06 -21.226273 2.451696 -3.593995 1e-06 -6e-06 -1e-06 -1.362679 2.240794 -0.746322 -21.334904 0.584908 3.008323 -13.821208 -3e-06 3e-06 -23.887157 -0.249078 -0.839482 -61.168976 2.4416 -1.511324 -0.294025 1.679686 0.833256 -14.218199 0.093215 1.300581 -34.212032 -0.287563 0.967175 -20.033201 0.964537 1.212844 -0.0 -0.0 1e-06 -3.440387 0.788233 0.501655 -15.928179 -3.167308 2.999707 -6.338825 -1e-06 1e-06 -18.123436 3.648181 -4.905664 -4e-06 1e-06 -3e-06 -5.780043 28.304792 2.942535 45.619434 58.288452 -4.817114 0.121638 14.199226 0.108942 -71.115891 43.121502 6.419558 2.243537 -5.255029 -3.180152 14.282871 -0.826594 6.952493 -2e-06 -12.690589 3e-06 16.376486 -18.40239 2.509165 1.665663 -1.955918 -2.878296 4.727792 -4.170582 4.993918 11.020511 3e-06 -1e-06 12.109035 -3.73571 -2.86678 -0.0 -1e-06 -0.0 1.291983 -1.928547 -1.498087 14.800108 0.567468 3.865602 14.242554 -1.341734 -6.660647 19.631941 0.143927 -0.648243 49.630722 -0.812638 -6.808537 0.353027 -1.511149 -0.03194 20.222763 3.684306 2.316626 18.787249 5e-06 -1e-06 10.751615 -0.479867 1.397905 0.0 0.0 -0.0 3.273802 0.305947 -0.58011 21.486782 11.830361 2.266128 8.162912 0.0 -0.0 18.399055 -3.798981 -4.940567 3e-06 -1e-06 -1e-06 7.069112 -10.833245 -41.511383 0.317313 0.887072 82.523651 -13.630283 -8.563704 45.958153 1.723399 -1.489619 -0.289788 0.0 1e-06 -1e-06 -1.857976 2.153992 -89.528381 -0.434462 -0.435696 130.419479 6.226964 -14.863185 33.098457 -1.722487 0.931553 0.809878 0.0 -0.0 -4e-06 
0.0 0.0 0.0 0.0 -0.0 0.0 -4.141448 47.760612 120.304214 -0.921634 4.242293 54.769855 3.121252 -1.286597 12.168446 0.927053 -3.23989 0.373249 5.692472 -5.203003 14.230032 -0.14188 2.541361 4.181767 -1.314369 0.89878 -3.589634 -2.866178 0.384422 2.404207 7.7e-05 -2.2e-05 6e-06 0.061092 0.001173 -0.291962 0.929376 -3.850955 -11.315018 -0.811311 3.866707 -11.327619 20.372635 -20.920452 1.613044 -7.622203 -50.878201 -40.911919 -0.387277 -10.16516 0.037349 61.613129 3.71587 -0.214843 -5.882102 9.86128 0.702589 -10.936865 -0.360577 7.156202 -1e-06 8.774822 -2e-06 -16.608772 18.35294 6.43348 -1.844031 2.498505 -2.507277 -10.163594 4.678941 4.621106 -20.976011 -1e-06 4e-06 -21.226273 2.451698 -3.593998 0.0 -6e-06 -1e-06 -1.36268 2.240796 -0.746323 -21.334904 0.584908 3.008323 -13.821205 -2e-06 2e-06 -23.887156 -0.249078 -0.839483 -61.076012 2.531779 -1.450701 -0.294024 1.679687 0.833255 -14.218198 0.093215 1.300581 -34.212032 -0.287563 0.967172 -20.033201 0.964537 1.212843 -0.0 -0.0 1e-06 -3.440386 0.788233 0.501655 -15.928176 -3.167308 2.999707 -6.338821 -2e-06 1e-06 -18.123436 3.648182 -4.905668 -5e-06 0.0 -3e-06 -3.836924 28.185646 4.163754 46.988724 55.844482 -4.069539 0.084931 15.330066 0.136172 -71.36216 43.982239 6.988817 2.243539 -5.255033 -3.180156 14.282883 -0.826593 6.952502 -1e-06 -12.690595 -1e-06 16.301291 -18.377357 2.452086 1.665664 -1.95592 -2.878296 4.727797 -4.170583 4.993922 11.02052 3e-06 1e-06 12.109043 -3.735714 -2.866782 -0.0 -0.0 -0.0 1.291985 -1.928548 -1.498089 14.800115 0.567469 3.865608 14.242559 -1.341736 -6.660652 19.63195 0.143924 -0.648241 49.59819 -0.780995 -6.882157 0.353029 -1.511149 -0.031941 20.222775 3.684307 2.316632 18.787262 3e-06 3e-06 10.751622 -0.479869 1.397907 -0.0 0.0 0.0 3.273804 0.305947 -0.580109 21.486801 11.830367 2.266136 8.162921 2e-06 2e-06 18.399071 -3.798984 -4.940569 3e-06 -1e-06 -1e-06 7.264519 -12.518796 -38.785374 0.381968 0.86676 79.378242 -13.33703 -9.08265 48.382996 1.682255 -1.49753 0.408197 0.0 -0.0 2e-06 -0.67766 1.469207 -90.860268 -0.550867 -0.692584 129.988907 6.372539 -13.887138 34.941784 -1.646294 0.931174 -0.31954 0.0 0.0 -4e-06 
0.0 0.0 0.0 0.0 -0.0 0.0 -4.609684 47.193111 122.282066 -0.062689 5.214757 54.640026 3.116884 -1.256314 11.662487 0.927841 -3.309731 0.325704 5.746412 -5.26919 14.122043 0.410513 2.604311 4.70421 -1.637578 0.449953 -3.576307 -2.863045 0.022432 2.271835 7.7e-05 -2.3e-05 6e-06 0.057617 0.002769 -0.281652 0.922097 -3.836036 -11.300461 -0.810359 3.851939 -11.2945 20.317408 -20.379116 1.511247 -11.492807 -53.474731 -36.977741 -0.246638 -10.660371 0.016785 64.542793 3.0038 0.478765 -5.882107 9.861281 0.702591 -10.936873 -0.360575 7.156208 -1e-06 8.774822 0.0 -16.293974 18.246006 6.577271 -1.844032 2.498504 -2.507277 -10.163601 4.678943 4.621109 -20.976023 -2e-06 2e-06 -21.226288 2.451698 -3.593998 1e-06 -6e-06 -1e-06 -1.362682 2.240796 -0.746323 -21.334913 0.584912 3.008324 -13.821213 -2e-06 3e-06 -23.887169 -0.249078 -0.839483 -60.826488 2.54724 -1.36789 -0.294025 1.679687 0.833256 -14.218209 0.093214 1.300581 -34.212051 -0.287562 0.967172 -20.033216 0.964538 1.212843 -0.0 -0.0 1e-06 -3.440387 0.788234 0.501656 -15.928185 -3.167307 2.999707 -6.338827 -1e-06 2e-06 -18.123444 3.648181 -4.905668 -5e-06 1e-06 -3e-06 -2.131422 27.875263 5.091149 48.565674 53.284302 -3.323323 0.153121 16.692036 0.183343 -71.108681 44.783257 7.53025 2.243543 -5.255037 -3.180159 14.282888 -0.826595 6.952504 -2e-06 -12.690602 2e-06 16.149078 -18.336111 2.46172 1.665667 -1.955921 -2.878299 4.727798 -4.170587 4.993926 11.020528 2e-06 -2e-06 12.109054 -3.735715 -2.866786 0.0 -0.0 -0.0 1.291987 -1.928549 -1.49809 14.800129 0.567467 3.865608 14.242578 -1.341735 -6.660663 19.631969 0.143926 -0.648249 49.572926 -0.690636 -6.783751 0.353029 -1.51115 -0.031941 20.222794 3.684308 2.316629 18.787273 4e-06 -3e-06 10.75163 -0.479869 1.397905 -0.0 0.0 0.0 3.273807 0.305946 -0.580111 21.486816 11.830372 2.266131 8.162927 1e-06 -1e-06 18.399086 -3.798986 -4.940577 3e-06 -1e-06 -1e-06 7.41169 -13.653641 -36.301811 0.435864 0.807348 76.249809 -13.317994 -9.700152 50.813759 1.650899 -1.487334 0.877979 0.0 0.0 3e-06 0.771127 0.584288 -90.791489 -0.657535 -0.925032 129.781891 6.846548 -13.452696 36.110203 -1.623422 0.944789 -0.844597 -0.0 0.0 -4e-06 
0.0 0.0 0.0 0.0 -0.0 0.0 -5.099036 46.771564 124.234047 0.172004 5.894608 54.859158 3.122167 -1.075507 11.134963 0.874354 -3.17276 0.221501 5.745943 -5.124412 13.839585 0.732472 2.777476 5.03866 -1.914103 0.025034 -3.544366 -2.734221 -0.342283 1.931395 7.7e-05 -2.3e-05 6e-06 0.008422 0.005873 -0.277274 0.866157 -3.811491 -11.260864 -0.855874 3.834275 -11.248857 20.09137 -19.721039 1.199863 -15.890256 -55.70776 -32.06826 -0.263008 -10.916938 0.021717 67.458549 2.096747 1.144866 -5.8821 9.861278 0.70259 -10.936861 -0.360576 7.156199 -1e-06 8.774817 0.0 -16.047108 18.087999 6.717324 -1.84403 2.498502 -2.507276 -10.16359 4.67894 4.621105 -20.976006 -5e-06 2e-06 -21.226269 2.451693 -3.593999 0.0 -6e-06 -1e-06 -1.36268 2.240796 -0.746323 -21.334896 0.584908 3.00832 -13.821203 -4e-06 2e-06 -23.887152 -0.24908 -0.839483 -60.573582 2.46865 -1.31078 -0.294023 1.679686 0.833255 -14.218198 0.093213 1.300579 -34.212021 -0.287567 0.96717 -20.033197 0.964534 1.212843 -0.0 -0.0 1e-06 -3.440385 0.788233 0.501655 -15.928172 -3.167309 2.999705 -6.338822 -2e-06 2e-06 -18.12343 3.648179 -4.905667 -5e-06 1e-06 -3e-06 -0.840103 27.697744 5.646403 49.982208 50.583843 -2.907215 0.3802 18.328484 0.273207 -69.770981 45.317463 8.376574 2.24354 -5.255033 -3.180155 14.282878 -0.826594 6.952498 -2e-06 -12.690593 1e-06 16.04558 -18.323011 2.501229 1.665665 -1.95592 -2.878296 4.727797 -4.170584 4.993921 11.020515 3e-06 -2e-06 12.10904 -3.735712 -2.866782 -1e-06 -0.0 -1e-06 1.291983 -1.928548 -1.498088 14.800115 0.567467 3.865604 14.242558 -1.341734 -6.660653 19.631948 0.143926 -0.648244 49.56926 -0.611286 -6.581237 0.353029 -1.511149 -0.03194 20.222771 3.684308 2.316629 18.787256 5e-06 0.0 10.751617 -0.479868 1.397906 0.0 0.0 -0.0 3.273804 0.305947 -0.580111 21.486795 11.830365 2.266131 8.162921 2e-06 -0.0 18.399061 -3.798982 -4.94057 3e-06 -2e-06 -1e-06 7.891818 -13.638384 -34.229015 0.43336 0.697487 73.261147 -13.25856 -10.518425 53.006329 1.656209 -1.496974 1.180391 -0.0 0.0 2e-06 2.625489 0.079043 -89.81221 -0.759182 -1.041832 129.802887 7.330063 -13.346311 35.781757 -1.671436 0.953133 -0.310658 0.0 0.0 -2e-06 
0.0 0.0 0.0 0.0 -0.0 0.0 -5.627071 46.670238 126.103447 -0.883292 6.167898 55.237907 3.251764 -0.720929 10.697605 0.781261 -2.731033 0.087386 5.783472 -4.580997 13.576879 0.556525 3.003712 4.977684 -1.922031 -0.142293 -3.536278 -2.618343 -0.52924 1.524851 7.7e-05 -2.2e-05 6e-06 -0.062039 0.01238 -0.28318 0.774087 -3.781239 -11.214761 -0.90805 3.820251 -11.211673 19.460194 -18.93828 1.075088 -19.99342 -57.349228 -27.47167 -0.265451 -10.783787 0.020171 70.151779 0.693715 1.02265 -5.882102 9.861282 0.702589 -10.936861 -0.360575 7.156199 -0.0 8.774822 -1e-06 -15.848989 17.92626 6.764618 -1.844032 2.498504 -2.507277 -10.163592 4.678943 4.621106 -20.976007 -3e-06 -1e-06 -21.226273 2.451694 -3.594001 1e-06 -6e-06 -2e-06 -1.362681 2.240797 -0.746323 -21.334896 0.584909 3.008319 -13.821205 -2e-06 1e-06 -23.887154 -0.249081 -0.839485 -60.346676 2.370108 -1.343764 -0.294024 1.679685 0.833256 -14.218198 0.093214 1.300578 -34.212021 -0.287567 0.967167 -20.033197 0.964534 1.212842 -1e-06 0.0 0.0 -3.440386 0.788233 0.501655 -15.928176 -3.16731 2.999704 -6.338822 -1e-06 1e-06 -18.123432 3.64818 -4.905671 -5e-06 1e-06 -3e-06 -0.055089 28.137705 5.980855 50.884319 47.998566 -3.291418 0.625086 20.115696 0.405826 -67.218422 45.487991 9.606469 2.24354 -5.255033 -3.180156 14.282885 -0.826596 6.952498 -1e-06 -12.690597 2e-06 16.004906 -18.372202 2.528578 1.665666 -1.95592 -2.878298 4.727795 -4.170584 4.993923 11.020519 3e-06 -0.0 12.109048 -3.735713 -2.866782 0.0 0.0 0.0 1.291985 -1.928548 -1.49809 14.800122 0.567468 3.865607 14.242568 -1.341736 -6.660654 19.631958 0.143925 -0.648244 49.569824 -0.543527 -6.388117 0.353029 -1.51115 -0.03194 20.222778 3.684306 2.316629 18.787264 4e-06 -1e-06 10.751622 -0.479869 1.397905 -1e-06 -0.0 0.0 3.273806 0.305946 -0.580111 21.486801 11.830368 2.266129 8.162924 1e-06 -1e-06 18.399071 -3.798984 -4.940572 3e-06 -1e-06 -1e-06 9.004617 -11.979736 -32.416286 0.397625 0.517204 70.399536 -12.975601 -11.293166 54.582458 1.6851 -1.54852 1.559871 -0.0 0.0 2e-06 4.926189 0.955826 -88.516823 -0.878821 -1.127474 129.213898 7.664045 -13.368384 34.434475 -1.729498 0.934766 -0.24794 0.0 0.0 -3e-06 
